<svg width="97" height="72" viewBox="0 0 97 72" fill="none" xmlns="http://www.w3.org/2000/svg">
<path d="M21.0722 33C21.0722 35.1067 19.7655 36.16 17.1522 36.16H10.4322C6.96552 36.16 5.23219 34.2133 5.23219 30.32V13.16C5.23219 12.9733 5.33885 12.1733 5.55219 10.76C5.81885 9.13333 6.80552 8.12 8.51219 7.72C9.89885 7.50667 11.2855 7.30667 12.6722 7.12C13.6589 6.8 14.3122 6.05333 14.6322 4.88C14.8722 3.89333 15.1122 2.90666 15.3522 1.92C15.7789 0.959999 16.6455 0.48 17.9522 0.48C18.9655 0.48 19.7389 0.786666 20.2722 1.4C20.8055 2.01333 21.0722 2.76 21.0722 3.64V33ZM14.8722 30.2V13.4C14.8722 13.1067 14.7255 12.72 14.4322 12.24C14.0589 11.6 13.6055 11.28 13.0722 11.28C12.6455 11.28 12.2455 11.5333 11.8722 12.04C11.4989 12.5467 11.3122 13.0133 11.3122 13.44V30.16C11.3122 30.48 11.4722 30.8933 11.7922 31.4C12.1655 32.0133 12.5922 32.32 13.0722 32.32C13.5255 32.32 13.9522 32.0533 14.3522 31.52C14.6989 31.0667 14.8722 30.6267 14.8722 30.2ZM38.2706 32.96C38.2706 34.96 37.044 35.96 34.5906 35.96H28.3106C26.0973 35.96 24.6573 35.0933 23.9906 33.36C23.6173 32.4533 23.4306 30.84 23.4306 28.52C23.4306 26.9467 23.484 25.8267 23.5906 25.16C23.8306 23.9067 24.4573 22.9333 25.4706 22.24C25.7906 22.0267 26.8306 21.5733 28.5906 20.88C29.9506 20.32 30.9506 19.6533 31.5906 18.88C31.9373 18.4533 32.164 17.8667 32.2706 17.12C32.2973 16.8267 32.3106 16.36 32.3106 15.72C32.3106 13.64 31.8306 12.6 30.8706 12.6C30.2573 12.6 29.804 12.9867 29.5106 13.76C29.0306 15.12 28.7773 15.84 28.7506 15.92C28.2706 16.6667 27.4706 17.04 26.3506 17.04C24.484 17.04 23.5506 15.9333 23.5506 13.72C23.5506 11.6133 24.364 10.16 25.9906 9.36C27.0573 8.85333 28.684 8.6 30.8706 8.6C35.804 8.6 38.2706 10.32 38.2706 13.76V32.96ZM32.3106 28.36C32.3106 25.8267 31.8306 24.56 30.8706 24.56C29.884 24.56 29.3906 25.8267 29.3906 28.36C29.3906 30.92 29.884 32.2 30.8706 32.2C31.8306 32.2 32.3106 30.92 32.3106 28.36ZM49.0397 9.68C49.0397 10 48.9197 10.2933 48.6797 10.56C47.373 11.9733 46.7197 12.9867 46.7197 13.6V32.88C46.7197 33.7867 46.4397 34.5067 45.8797 35.04C45.3464 35.6 44.613 35.88 43.6797 35.88C42.7197 35.88 41.973 35.5867 41.4397 35C40.933 34.44 40.6797 33.72 40.6797 32.84V13.64C40.6797 13.5333 40.453 12.8933 39.9997 11.72C39.573 10.52 39.3597 9.85333 39.3597 9.72C39.3597 9.4 39.733 8.42667 40.4797 6.8C40.7997 6.02667 41.133 5.25333 41.4797 4.48C41.933 3.70667 42.533 3.14667 43.2797 2.8C44.3197 2.34666 45.5197 2.12 46.8797 2.12C48.213 2.12 48.8797 2.49333 48.8797 3.24C48.8797 3.32 48.813 3.54666 48.6797 3.92C47.7464 5.04 47.2797 5.86667 47.2797 6.4C47.2797 6.53333 47.573 7.08 48.1597 8.04C48.7464 9 49.0397 9.54666 49.0397 9.68ZM67.1866 30.68C67.1866 32.8933 66.1999 34.4133 64.2266 35.24C62.9999 35.72 61.1999 35.96 58.8266 35.96C56.4266 35.96 54.6132 35.6933 53.3866 35.16C51.4932 34.36 50.5466 32.8533 50.5466 30.64V14.04C50.5466 11.8533 51.4399 10.3467 53.2266 9.52C54.4266 8.98667 56.2932 8.72 58.8266 8.72C61.2799 8.72 63.1332 8.98667 64.3866 9.52C66.2532 10.3467 67.1866 11.84 67.1866 14V30.68ZM60.7466 30.28V14.4C60.7466 14.1333 60.5866 13.7733 60.2666 13.32C59.8932 12.7333 59.4266 12.44 58.8666 12.44C58.4399 12.44 58.0266 12.68 57.6266 13.16C57.2266 13.6133 57.0266 14.04 57.0266 14.44V30.24C57.0266 30.56 57.1866 30.9467 57.5066 31.4C57.9332 31.9867 58.3866 32.28 58.8666 32.28C59.3466 32.28 59.7866 32.0267 60.1866 31.52C60.5599 31.0933 60.7466 30.68 60.7466 30.28ZM85.85 32.72C85.85 33.68 85.5567 34.4133 84.97 34.92C84.3833 35.4533 83.65 35.72 82.77 35.72C81.81 35.72 81.05 35.44 80.49 34.88C79.9567 34.32 79.69 33.64 79.69 32.84V14.04C79.69 13.5867 79.49 13.16 79.09 12.76C78.7167 12.36 78.3433 12.16 77.97 12.16C77.49 12.16 77.0767 12.3733 76.73 12.8C76.3833 13.2 76.21 13.6133 76.21 14.04V32.84C76.21 33.7467 75.9167 34.4533 75.33 34.96C74.7433 35.4667 74.01 35.72 73.13 35.72C72.1433 35.72 71.3833 35.4267 70.85 34.84C70.3433 34.28 70.09 33.56 70.09 32.68V11.52C70.09 11.1733 70.21 10.7067 70.45 10.12C70.69 9.53333 70.97 9.14667 71.29 8.96C71.8767 8.64 72.6233 8.48 73.53 8.48C73.8233 8.48 74.2367 8.50667 74.77 8.56C75.33 8.58667 75.73 8.6 75.97 8.6C76.6367 8.6 77.6233 8.56 78.93 8.48C80.2367 8.4 80.89 8.36 80.89 8.36C82.7033 8.36 84.0367 9.02667 84.89 10.36C85.53 11.3467 85.85 12.6133 85.85 14.16V32.72ZM96.3303 10.48C96.3303 10.5867 96.0236 11.2267 95.4103 12.4C94.8236 13.5733 94.5303 14.2133 94.5303 14.32V31.72C94.5303 31.8267 94.797 32.4133 95.3303 33.48C95.8903 34.5467 96.1703 35.1333 96.1703 35.24C96.1703 36.0933 95.477 36.52 94.0903 36.52C90.3836 36.52 88.5303 34.5467 88.5303 30.6V14.08C88.5303 14.0533 88.3703 13.5333 88.0503 12.52C87.7303 11.48 87.5703 10.7733 87.5703 10.4C87.5703 10.16 87.757 9.24 88.1303 7.64C88.5303 5.88 88.8636 4.68 89.1303 4.04C89.2636 3.72 89.7836 3.4 90.6903 3.08C90.797 3.05333 91.077 3.04 91.5303 3.04C92.3036 3.04 92.917 3.21333 93.3703 3.56C93.8503 3.88 94.1836 4.48 94.3703 5.36C94.637 6.69333 94.7836 7.41333 94.8103 7.52C94.9703 7.89333 95.2903 8.41333 95.7703 9.08C96.1436 9.56 96.3303 10.0267 96.3303 10.48ZM32.0878 66.68C32.0878 67.5333 31.7945 68.2133 31.2078 68.72C30.6478 69.2267 29.9678 69.48 29.1678 69.48C28.2611 69.48 27.5411 69.2 27.0078 68.64C26.5011 68.08 26.2478 67.4267 26.2478 66.68C26.2478 65.8533 26.5278 65.1733 27.0878 64.64C27.6745 64.1067 28.3678 63.84 29.1678 63.84C30.0211 63.84 30.7145 64.12 31.2478 64.68C31.8078 65.24 32.0878 65.9067 32.0878 66.68ZM48.5906 61.56C48.5906 64.3333 47.9373 66.1733 46.6306 67.08C45.644 67.7467 43.8306 68.08 41.1906 68.08C39.1373 68.08 37.5773 67.8667 36.5106 67.44C34.6706 66.6933 33.7506 65.2533 33.7506 63.12V45.8C33.7506 42.3333 36.204 40.6 41.1106 40.6C41.164 40.6 41.4973 40.64 42.1106 40.72C42.7506 40.8 43.2306 40.84 43.5506 40.84C45.6306 40.8667 47.0573 41.5733 47.8306 42.96C48.3373 43.8667 48.5906 45.2 48.5906 46.96C48.5906 49.76 47.6173 51.16 45.6706 51.16C44.3373 51.16 43.484 50.5733 43.1106 49.4C42.9773 48.3333 42.8306 47.2533 42.6706 46.16C42.5106 45.04 41.9906 44.48 41.1106 44.48C40.6573 44.48 40.2573 44.6933 39.9106 45.12C39.5906 45.52 39.4306 45.92 39.4306 46.32V62.48C39.4306 62.9067 39.6173 63.3467 39.9906 63.8C40.3906 64.2533 40.764 64.48 41.1106 64.48C42.044 64.48 42.5773 63.84 42.7106 62.56C42.7906 61.3867 42.884 60.2133 42.9906 59.04C43.3373 57.76 44.2306 57.12 45.6706 57.12C47.004 57.12 47.884 57.68 48.3106 58.8C48.4973 59.36 48.5906 60.28 48.5906 61.56ZM67.1866 62.68C67.1866 64.8933 66.1999 66.4133 64.2266 67.24C62.9999 67.72 61.1999 67.96 58.8266 67.96C56.4266 67.96 54.6132 67.6933 53.3866 67.16C51.4932 66.36 50.5466 64.8533 50.5466 62.64V46.04C50.5466 43.8533 51.4399 42.3467 53.2266 41.52C54.4266 40.9867 56.2932 40.72 58.8266 40.72C61.2799 40.72 63.1332 40.9867 64.3866 41.52C66.2532 42.3467 67.1866 43.84 67.1866 46V62.68ZM60.7466 62.28V46.4C60.7466 46.1333 60.5866 45.7733 60.2666 45.32C59.8932 44.7333 59.4266 44.44 58.8666 44.44C58.4399 44.44 58.0266 44.68 57.6266 45.16C57.2266 45.6133 57.0266 46.04 57.0266 46.44V62.24C57.0266 62.56 57.1866 62.9467 57.5066 63.4C57.9332 63.9867 58.3866 64.28 58.8666 64.28C59.3466 64.28 59.7866 64.0267 60.1866 63.52C60.5599 63.0933 60.7466 62.68 60.7466 62.28ZM96.73 64.4C96.73 65.2 96.4367 65.8933 95.85 66.48C95.2633 67.0667 94.4633 67.36 93.45 67.36C92.5167 67.36 91.7033 67.0667 91.01 66.48C90.3433 65.92 90.01 65.2667 90.01 64.52V46.08C90.01 45.76 89.8633 45.4 89.57 45C89.1967 44.5733 88.7967 44.36 88.37 44.36C87.9433 44.36 87.5567 44.5733 87.21 45C86.8633 45.4 86.69 45.7467 86.69 46.04V64.68C86.69 65.5067 86.3033 66.1733 85.53 66.68C84.8633 67.1333 84.13 67.36 83.33 67.36C82.37 67.36 81.5967 67.08 81.01 66.52C80.45 65.96 80.17 65.2933 80.17 64.52V45.96C80.17 45.5333 79.9567 45.12 79.53 44.72C79.13 44.2933 78.7033 44.08 78.25 44.08C77.7433 44.08 77.29 44.32 76.89 44.8C76.5167 45.28 76.33 45.6533 76.33 45.92V64.52C76.33 65.24 76.0367 65.8933 75.45 66.48C74.89 67.0667 74.1567 67.36 73.25 67.36C72.21 67.36 71.41 67.0267 70.85 66.36C70.37 65.8 70.13 65.1333 70.13 64.36V43.32C70.13 41.32 71.3833 40.32 73.89 40.32C74.0233 40.32 74.7167 40.3733 75.97 40.48C77.25 40.56 77.9567 40.6 78.09 40.6C78.1967 40.6 78.8233 40.56 79.97 40.48C81.1167 40.3733 81.77 40.32 81.93 40.32C82.0633 40.32 82.8767 40.4133 84.37 40.6C85.89 40.7867 86.7167 40.88 86.85 40.88C86.9833 40.88 87.77 40.7867 89.21 40.6C90.6767 40.4133 91.45 40.32 91.53 40.32C93.37 40.32 94.7433 40.9733 95.65 42.28C96.37 43.2933 96.73 44.5467 96.73 46.04V64.4Z" fill="white"/>
</svg>
